<?xml version="1.0" encoding="UTF-8"?>
<svg  viewBox="0 0 894 692" version="1.1" xmlns="http://www.w3.org/2000/svg" xmlns:xlink="http://www.w3.org/1999/xlink">
    <!-- Generator: Sketch 53 (72520) - https://sketchapp.com -->
    <title>microservices for kubernetes</title>
    <desc>Created with Sketch.</desc>
    <g id="Page-1" stroke="none" stroke-width="1" fill="none" fill-rule="evenodd">
        <circle id="Oval" fill="#FFFFFF" fill-rule="nonzero" cx="475.7" cy="349.9" r="44.3"></circle>
        <circle id="Oval" fill="#FFFFFF" fill-rule="nonzero" cx="214.6" cy="348.5" r="44.3"></circle>
        <path d="M804.5,463.3 L804.4,463.3" id="Path" stroke="#2E2D77" stroke-width="1.5225"></path>
        <g id="Group" transform="translate(2.000000, 1.000000)">
            <rect id="Rectangle" stroke="#3662AC" stroke-width="2.213" x="0.1" y="0.2" width="890.8" height="689.1"></rect>
            <g transform="translate(5.000000, 5.000000)">
                <rect id="Rectangle" x="0.2" y="0.5" width="157.8" height="15.2"></rect>
                <text id="CLOUD-NETWORK" fill="#3662AC" font-family="HelvNeueMediumforIBM, HelvNeue Medium for IBM" font-size="12" font-weight="normal">
                    <tspan x="0.1565" y="9.0577">CLOUD NETWORK</tspan>
                </text>
            </g>
        </g>
        <rect id="Rectangle" stroke="#4477BC" stroke-width="0.75" x="146.1" y="38.3" width="566.2" height="555.7"></rect>
        <g id="Group" transform="translate(156.000000, 41.000000)">
            <rect id="Rectangle" x="0.8" y="0.7" width="157.8" height="15.8"></rect>
            <text id="KUBERNETES-CLUSTER" fill="#3662AC" font-family="HelvNeueMediumforIBM, HelvNeue Medium for IBM" font-size="12" font-weight="normal">
                <tspan x="0.8402" y="9.2938">KUBERNETES CLUSTER</tspan>
            </text>
        </g>
        <g id="Group" transform="translate(745.000000, 86.000000)">
            <rect id="Rectangle" stroke="#4477BC" stroke-width="0.75" fill="#FFFFFF" fill-rule="nonzero" x="0.4" y="0.3" width="118" height="473.6"></rect>
            <g transform="translate(29.678400, 7.438200)" fill="#3662AC" font-family="HelvNeueMediumforIBM, HelvNeue Medium for IBM" font-size="11" font-weight="normal">
                <text id="DATABASE">
                    <tspan x="0" y="8">DATABASE</tspan>
                </text>
                <text id="SERVICES">
                    <tspan x="2.3" y="21.2">SERVICES</tspan>
                </text>
            </g>
        </g>
        <path d="M302,79 L421.4,79 L421.4,559.9 L302,559.9 L302,79 Z" id="Rectangle" stroke="#3662AC" stroke-width="1.5522" stroke-dasharray="6.2086"></path>
        <g id="Group" transform="translate(326.000000, 85.000000)" fill="#3662AC" font-family="HelvNeueMediumforIBM, HelvNeue Medium for IBM" font-size="11" font-weight="normal">
            <text id="KUBERNETES">
                <tspan x="0" y="8">KUBERNETES</tspan>
            </text>
            <text id="FRONTEND">
                <tspan x="7" y="21">FRONTEND</tspan>
            </text>
            <text id="SERVICES">
                <tspan x="10" y="34">SERVICES</tspan>
            </text>
        </g>
        <g id="Group" transform="translate(164.000000, 276.000000)">
            <path d="M0.4,0.2 L100.8,0.2 L100.8,169.8 L0.4,169.8 L0.4,0.2 Z" id="Rectangle" stroke="#3662AC" stroke-width="1.0815" stroke-dasharray="4.3262"></path>
            <g transform="translate(30.031400, 5.460100)" fill="#3662AC" font-family="HelvNeueMediumforIBM, HelvNeue Medium for IBM" font-size="11" font-weight="normal">
                <text id="PUBLIC">
                    <tspan x="0" y="8">PUBLIC</tspan>
                </text>
                <text id="ROUTE">
                    <tspan x="1.3" y="21.2">ROUTE</tspan>
                </text>
            </g>
        </g>
        <g id="micro-kube-browser" transform="translate(36.000000, 319.000000)">
            <text id="BROWSER" fill="#3662AC" font-family="HelvNeueMediumforIBM, HelvNeue Medium for IBM" font-size="11" font-weight="normal">
                <tspan x="0.5542" y="65.1511">BROWSER</tspan>
            </text>
            <g id="Group" transform="translate(1.000000, 0.000000)" fill-rule="nonzero">
                <circle id="Oval" fill="#B5862C" cx="28" cy="27.9" r="27.5"></circle>
                <g transform="translate(9.000000, 11.000000)" id="Rectangle">
                    <rect fill="#FFFFFF" x="0.6" y="0.7" width="36.8" height="28.8"></rect>
                    <rect fill="#B5862C" x="3.5" y="3.6" width="31.1" height="22.2"></rect>
                    <rect fill="#FFFFFF" x="3.4" y="30.3" width="31.1" height="2.7"></rect>
                </g>
            </g>
        </g>
        <g id="Group" transform="translate(94.000000, 343.000000)">
            <path d="M0.3,7 L68.8,7" id="Path" stroke="#3662AC" stroke-width="1.5"></path>
            <polygon id="Path" fill="#3662AC" fill-rule="nonzero" points="63.8 13.1 62.8 12 68.2 7 62.8 1.9 63.8 0.8 70.4 7"></polygon>
        </g>
        <g id="Group" transform="translate(244.000000, 343.000000)">
            <path d="M0.9,7 L54.1,7" id="Path" stroke="#3662AC" stroke-width="1.5"></path>
            <polygon id="Path" fill="#3662AC" fill-rule="nonzero" points="49.1 13.1 48.1 12 53.5 7 48.1 1.9 49.1 0.8 55.7 7"></polygon>
        </g>
        <g id="Group" transform="translate(639.000000, 173.000000)">
            <polyline id="Path" stroke="#3662AC" stroke-width="1.5" points="0.4 6.5 35 6.5 133.6 6.5"></polyline>
            <polygon id="Path" fill="#3662AC" fill-rule="nonzero" points="128.6 12.6 127.6 11.5 133 6.5 127.6 1.5 128.6 0.4 135.2 6.5"></polygon>
        </g>
        <g id="Group" transform="translate(639.000000, 278.000000)">
            <polyline id="Path" stroke="#3662AC" stroke-width="1.5" points="0.4 6.2 35 6.2 133.6 6.2"></polyline>
            <polygon id="Path" fill="#3662AC" fill-rule="nonzero" points="128.6 12.4 127.6 11.3 133 6.2 127.6 1.2 128.6 0.1 135.2 6.2"></polygon>
        </g>
        <g id="Group" transform="translate(639.000000, 387.000000)">
            <polyline id="Path" stroke="#3662AC" stroke-width="1.5" points="0.4 6.4 35 6.4 133.6 6.4"></polyline>
            <polygon id="Path" fill="#3662AC" fill-rule="nonzero" points="128.6 12.5 127.6 11.4 133 6.4 127.6 1.3 128.6 0.2 135.2 6.4"></polygon>
        </g>
        <g id="Group" transform="translate(639.000000, 499.000000)">
            <polyline id="Path" stroke="#3662AC" stroke-width="1.5" points="0.4 6.8 35 6.8 133.6 6.8"></polyline>
            <polygon id="Path" fill="#3662AC" fill-rule="nonzero" points="128.6 13 127.6 11.9 133 6.8 127.6 1.8 128.6 0.7 135.2 6.8"></polygon>
        </g>
        <g id="micro-kube-catalogms" transform="translate(558.000000, 152.000000)">
            <g id="Group" transform="translate(8.000000, 0.000000)" fill-rule="nonzero">
                <g opacity="0.52" transform="translate(16.000000, 0.000000)">
                    <circle id="Oval" fill="#E5B522" cx="27.6" cy="27.5" r="27.5"></circle>
                    <path d="M35.5,20.5 L33.2,20.5 C33.2,22.2 32.9,23.9 32.2,25.4 L24.8,21.8 C25.3,20.2 24.9,18.4 23.6,17.2 C22.1,15.7 19.6,15.4 17.9,16.4 L16.2,14.7 L14.6,16.3 L16.3,18 C15.2,19.8 15.4,22.1 17.1,23.7 C18.4,25 20.2,25.3 21.7,24.9 L31.9,46 L33,45.5 L27.4,33.9 C28.8,33.1 30.1,32.3 31.2,31.1 C32.4,29.9 33.2,28.7 34,27.3 L45.6,32.9 L46.1,31.8 L34.5,26.2 C35.1,24.6 35.5,22.6 35.5,20.5 Z M19.4,19.7 C19.9,19.2 20.7,19.2 21,19.7 C21.5,20.2 21.5,21 21,21.3 C20.5,21.8 19.7,21.8 19.4,21.3 C18.9,20.9 18.9,20.2 19.4,19.7 Z M26.1,32 L22.5,24.6 C22.8,24.4 23.2,24.2 23.5,23.9 C23.8,23.6 24,23.3 24.2,22.9 L31.6,26.5 C30.4,28.8 28.5,30.8 26.1,32 Z" id="Shape" fill="#FFFFFF"></path>
                </g>
                <g opacity="0.84" transform="translate(10.000000, 0.000000)">
                    <circle id="Oval" fill="#E5B522" cx="27.8" cy="27.5" r="27.5"></circle>
                    <path d="M35.7,20.5 L33.4,20.5 C33.4,22.2 33.1,23.9 32.4,25.4 L25,21.8 C25.5,20.2 25.1,18.4 23.8,17.2 C22.3,15.7 19.8,15.4 18.1,16.4 L16.4,14.7 L14.8,16.3 L16.5,18 C15.4,19.8 15.6,22.1 17.3,23.7 C18.6,25 20.4,25.3 21.9,24.9 L32.1,46 L33.2,45.5 L27.6,33.9 C29,33.1 30.3,32.3 31.4,31.1 C32.6,29.9 33.4,28.7 34.2,27.3 L45.8,32.9 L46.3,31.8 L34.7,26.2 C35.3,24.6 35.7,22.6 35.7,20.5 Z M19.6,19.7 C20.1,19.2 20.9,19.2 21.2,19.7 C21.7,20.2 21.7,21 21.2,21.3 C20.7,21.8 19.9,21.8 19.6,21.3 C19.1,20.9 19.1,20.2 19.6,19.7 Z M26.3,32 L22.7,24.6 C23,24.4 23.4,24.2 23.7,23.9 C24,23.6 24.2,23.3 24.4,22.9 L31.8,26.5 C30.7,28.8 28.7,30.8 26.3,32 Z" id="Shape" fill="#FFFFFF"></path>
                </g>
                <g>
                    <circle id="omni_imp_e2e_java_micro_4_" fill="#E5B522" cx="28.1" cy="27.5" r="27.5"></circle>
                    <path d="M36,20.5 L33.7,20.5 C33.7,22.2 33.4,23.9 32.7,25.4 L25.3,21.8 C25.8,20.2 25.4,18.4 24.1,17.2 C22.6,15.7 20.1,15.4 18.4,16.4 L16.7,14.7 L15.1,16.3 L16.8,18 C15.7,19.8 15.9,22.1 17.6,23.7 C18.9,25 20.7,25.3 22.2,24.9 L32.4,46 L33.5,45.5 L27.9,33.9 C29.3,33.1 30.6,32.3 31.7,31.1 C32.9,29.9 33.7,28.7 34.5,27.3 L46.1,32.9 L46.6,31.8 L35,26.2 C35.6,24.6 36,22.6 36,20.5 Z M19.9,19.7 C20.4,19.2 21.2,19.2 21.5,19.7 C22,20.2 22,21 21.5,21.3 C21,21.8 20.2,21.8 19.9,21.3 C19.4,20.9 19.4,20.2 19.9,19.7 Z M26.7,32 L23.1,24.6 C23.4,24.4 23.8,24.2 24.1,23.9 C24.4,23.6 24.6,23.3 24.8,22.9 L32.2,26.5 C31,28.8 29.1,30.8 26.7,32 Z" id="Shape" fill="#FFFFFF"></path>
                </g>
            </g>
            <g id="Group" transform="translate(0.148000, 57.812200)" fill="#3662AC" font-family="HelvNeueMediumforIBM, HelvNeue Medium for IBM" font-size="11" font-weight="normal">
                <text id="CATALOG">
                    <tspan x="17" y="8">CATALOG</tspan>
                </text>
                <text id="MICROSERVICE">
                    <tspan x="0.9" y="21.2">MICROSERVICE</tspan>
                </text>
            </g>
        </g>
        <g id="micro-kube-orderms" transform="translate(558.000000, 473.000000)">
            <g id="Group" transform="translate(8.000000, 0.000000)" fill-rule="nonzero">
                <g opacity="0.52" transform="translate(16.000000, 0.000000)">
                    <circle id="Oval" fill="#E5B522" cx="27.6" cy="27.8" r="27.5"></circle>
                    <path d="M35.5,20.9 L33.2,20.9 C33.2,22.6 32.9,24.3 32.2,25.8 L24.8,22.2 C25.3,20.6 24.9,18.8 23.6,17.6 C22.1,16.1 19.6,15.8 17.9,16.8 L16.2,15.1 L14.6,16.7 L16.3,18.4 C15.2,20.2 15.4,22.5 17.1,24.1 C18.4,25.4 20.2,25.7 21.7,25.3 L31.9,46.4 L33,45.9 L27.4,34.3 C28.8,33.5 30.1,32.7 31.2,31.5 C32.4,30.3 33.2,29.1 34,27.7 L45.6,33.3 L46.1,32.2 L34.5,26.6 C35.1,24.9 35.5,22.9 35.5,20.9 Z M19.4,20 C19.9,19.5 20.7,19.5 21,20 C21.5,20.5 21.5,21.3 21,21.6 C20.5,22.1 19.7,22.1 19.4,21.6 C18.9,21.3 18.9,20.5 19.4,20 Z M26.1,32.4 L22.5,25 C22.8,24.8 23.2,24.6 23.5,24.3 C23.8,24 24,23.7 24.2,23.3 L31.6,26.9 C30.4,29.2 28.5,31.1 26.1,32.4 Z" id="Shape" fill="#FFFFFF"></path>
                </g>
                <g opacity="0.84" transform="translate(10.000000, 0.000000)">
                    <circle id="Oval" fill="#E5B522" cx="27.8" cy="27.8" r="27.5"></circle>
                    <path d="M35.7,20.9 L33.4,20.9 C33.4,22.6 33.1,24.3 32.4,25.8 L25,22.2 C25.5,20.6 25.1,18.8 23.8,17.6 C22.3,16.1 19.8,15.8 18.1,16.8 L16.4,15.1 L14.8,16.7 L16.5,18.4 C15.4,20.2 15.6,22.5 17.3,24.1 C18.6,25.4 20.4,25.7 21.9,25.3 L32.1,46.4 L33.2,45.9 L27.6,34.3 C29,33.5 30.3,32.7 31.4,31.5 C32.6,30.3 33.4,29.1 34.2,27.7 L45.8,33.3 L46.3,32.2 L34.7,26.6 C35.3,24.9 35.7,22.9 35.7,20.9 Z M19.6,20 C20.1,19.5 20.9,19.5 21.2,20 C21.7,20.5 21.7,21.3 21.2,21.6 C20.7,22.1 19.9,22.1 19.6,21.6 C19.1,21.3 19.1,20.5 19.6,20 Z M26.3,32.4 L22.7,25 C23,24.8 23.4,24.6 23.7,24.3 C24,24 24.2,23.7 24.4,23.3 L31.8,26.9 C30.7,29.2 28.7,31.1 26.3,32.4 Z" id="Shape" fill="#FFFFFF"></path>
                </g>
                <g>
                    <circle id="omni_imp_e2e_java_micro_3_" fill="#E5B522" cx="28.1" cy="27.8" r="27.5"></circle>
                    <path d="M36,20.9 L33.7,20.9 C33.7,22.6 33.4,24.3 32.7,25.8 L25.3,22.2 C25.8,20.6 25.4,18.8 24.1,17.6 C22.6,16.1 20.1,15.8 18.4,16.8 L16.7,15.1 L15.1,16.7 L16.8,18.4 C15.7,20.2 15.9,22.5 17.6,24.1 C18.9,25.4 20.7,25.7 22.2,25.3 L32.4,46.4 L33.5,45.9 L27.9,34.3 C29.3,33.5 30.6,32.7 31.7,31.5 C32.9,30.3 33.7,29.1 34.5,27.7 L46.1,33.3 L46.6,32.2 L35,26.6 C35.6,24.9 36,22.9 36,20.9 Z M19.9,20 C20.4,19.5 21.2,19.5 21.5,20 C22,20.5 22,21.3 21.5,21.6 C21,22.1 20.2,22.1 19.9,21.6 C19.4,21.3 19.4,20.5 19.9,20 Z M26.7,32.4 L23.1,25 C23.4,24.8 23.8,24.6 24.1,24.3 C24.4,24 24.6,23.7 24.8,23.3 L32.2,26.9 C31,29.2 29.1,31.1 26.7,32.4 Z" id="Shape" fill="#FFFFFF"></path>
                </g>
            </g>
            <g id="Group" transform="translate(0.973200, 57.339500)" fill="#3662AC" font-family="HelvNeueMediumforIBM, HelvNeue Medium for IBM" font-size="11" font-weight="normal">
                <text id="ORDER">
                    <tspan x="23" y="8">ORDER</tspan>
                </text>
                <text id="MICROSERVICE">
                    <tspan x="0.1" y="21.2">MICROSERVICE</tspan>
                </text>
            </g>
        </g>
        <g id="micro-kube-customerms" transform="translate(558.000000, 257.000000)">
            <g id="Group" transform="translate(0.950300, 60.774600)" fill="#3662AC" font-family="HelvNeueMediumforIBM, HelvNeue Medium for IBM" font-size="11" font-weight="normal">
                <text id="CUSTOMER">
                    <tspan x="11" y="8">CUSTOMER</tspan>
                </text>
                <text id="MICROSERVICE">
                    <tspan x="0.1" y="21.2">MICROSERVICE</tspan>
                </text>
            </g>
            <g id="Group" transform="translate(8.000000, 0.000000)" fill-rule="nonzero">
                <g opacity="0.52" transform="translate(16.000000, 0.000000)">
                    <circle id="Oval" fill="#E5B522" cx="27.6" cy="28" r="27.5"></circle>
                    <path d="M35.5,21 L33.2,21 C33.2,22.7 32.9,24.4 32.2,25.9 L24.8,22.3 C25.3,20.7 24.9,18.9 23.6,17.7 C22.1,16.2 19.6,15.9 17.9,16.9 L16.2,15.2 L14.6,16.8 L16.3,18.5 C15.2,20.3 15.4,22.6 17.1,24.2 C18.4,25.5 20.2,25.8 21.7,25.4 L31.9,46.5 L33,46 L27.4,34.4 C28.8,33.6 30.1,32.8 31.2,31.6 C32.4,30.4 33.2,29.2 34,27.8 L45.6,33.4 L46.1,32.3 L34.5,26.7 C35.1,25.1 35.5,23.1 35.5,21 Z M19.4,20.2 C19.9,19.7 20.7,19.7 21,20.2 C21.5,20.7 21.5,21.5 21,21.8 C20.5,22.3 19.7,22.3 19.4,21.8 C18.9,21.4 18.9,20.6 19.4,20.2 Z M26.1,32.5 L22.5,25.1 C22.8,24.9 23.2,24.7 23.5,24.4 C23.8,24.1 24,23.8 24.2,23.4 L31.6,27 C30.4,29.3 28.5,31.3 26.1,32.5 Z" id="Shape" fill="#FFFFFF"></path>
                </g>
                <g opacity="0.84" transform="translate(10.000000, 0.000000)">
                    <circle id="Oval" fill="#E5B522" cx="27.8" cy="28" r="27.5"></circle>
                    <path d="M35.7,21 L33.4,21 C33.4,22.7 33.1,24.4 32.4,25.9 L25,22.3 C25.5,20.7 25.1,18.9 23.8,17.7 C22.3,16.2 19.8,15.9 18.1,16.9 L16.4,15.2 L14.8,16.8 L16.5,18.5 C15.4,20.3 15.6,22.6 17.3,24.2 C18.6,25.5 20.4,25.8 21.9,25.4 L32.1,46.5 L33.2,46 L27.6,34.4 C29,33.6 30.3,32.8 31.4,31.6 C32.6,30.4 33.4,29.2 34.2,27.8 L45.8,33.4 L46.3,32.3 L34.7,26.7 C35.3,25.1 35.7,23.1 35.7,21 Z M19.6,20.2 C20.1,19.7 20.9,19.7 21.2,20.2 C21.7,20.7 21.7,21.5 21.2,21.8 C20.7,22.3 19.9,22.3 19.6,21.8 C19.1,21.4 19.1,20.6 19.6,20.2 Z M26.3,32.5 L22.7,25.1 C23,24.9 23.4,24.7 23.7,24.4 C24,24.1 24.2,23.8 24.4,23.4 L31.8,27 C30.7,29.3 28.7,31.3 26.3,32.5 Z" id="Shape" fill="#FFFFFF"></path>
                </g>
                <g>
                    <circle id="omni_imp_e2e_java_micro_2_" fill="#E5B522" cx="28.1" cy="28" r="27.5"></circle>
                    <path d="M36,21 L33.7,21 C33.7,22.7 33.4,24.4 32.7,25.9 L25.3,22.3 C25.8,20.7 25.4,18.9 24.1,17.7 C22.6,16.2 20.1,15.9 18.4,16.9 L16.7,15.2 L15.1,16.8 L16.8,18.5 C15.7,20.3 15.9,22.6 17.6,24.2 C18.9,25.5 20.7,25.8 22.2,25.4 L32.4,46.5 L33.5,46 L27.9,34.4 C29.3,33.6 30.6,32.8 31.7,31.6 C32.9,30.4 33.7,29.2 34.5,27.8 L46.1,33.4 L46.6,32.3 L35,26.7 C35.6,25.1 36,23.1 36,21 Z M19.9,20.2 C20.4,19.7 21.2,19.7 21.5,20.2 C22,20.7 22,21.5 21.5,21.8 C21,22.3 20.2,22.3 19.9,21.8 C19.4,21.4 19.4,20.6 19.9,20.2 Z M26.7,32.5 L23.1,25.1 C23.4,24.9 23.8,24.7 24.1,24.4 C24.4,24.1 24.6,23.8 24.8,23.4 L32.2,27 C31,29.3 29.1,31.3 26.7,32.5 Z" id="Shape" fill="#FFFFFF"></path>
                </g>
            </g>
        </g>
        <g id="micro-kube-inventoryms" transform="translate(558.000000, 365.000000)">
            <g id="Group" transform="translate(0.090100, 60.320000)" fill="#3662AC" font-family="HelvNeueMediumforIBM, HelvNeue Medium for IBM" font-size="11" font-weight="normal">
                <text id="INVENTORY">
                    <tspan x="11" y="8">INVENTORY</tspan>
                </text>
                <text id="MICROSERVICE">
                    <tspan x="0.3" y="21.2">MICROSERVICE</tspan>
                </text>
            </g>
            <g id="Group" transform="translate(8.000000, 0.000000)" fill-rule="nonzero">
                <g opacity="0.52" transform="translate(15.000000, 0.000000)">
                    <circle id="Oval" fill="#E5B522" cx="27.9" cy="27.9" r="27.5"></circle>
                    <path d="M35.8,21 L33.5,21 C33.5,22.7 33.2,24.4 32.5,25.9 L25.1,22.3 C25.6,20.7 25.2,18.9 23.9,17.7 C22.4,16.2 19.9,15.9 18.2,16.9 L16.5,15.2 L14.9,16.8 L16.6,18.5 C15.5,20.3 15.7,22.6 17.4,24.2 C18.7,25.5 20.5,25.8 22,25.4 L32.2,46.5 L33.3,46 L27.7,34.4 C29.1,33.6 30.4,32.8 31.5,31.6 C32.7,30.4 33.5,29.2 34.3,27.8 L45.9,33.4 L46.4,32.3 L34.8,26.7 C35.4,25 35.8,23 35.8,21 Z M19.7,20.1 C20.2,19.6 21,19.6 21.3,20.1 C21.8,20.6 21.8,21.4 21.3,21.7 C20.8,22.2 20,22.2 19.7,21.7 C19.2,21.4 19.2,20.6 19.7,20.1 Z M26.4,32.5 L22.8,25.1 C23.1,24.9 23.5,24.7 23.8,24.4 C24.1,24.1 24.3,23.8 24.5,23.4 L31.9,27 C30.8,29.3 28.9,31.2 26.4,32.5 Z" id="Shape" fill="#FFFFFF"></path>
                </g>
                <g opacity="0.84" transform="translate(9.000000, 0.000000)">
                    <circle id="Oval" fill="#E5B522" cx="28.1" cy="27.9" r="27.5"></circle>
                    <path d="M36,21 L33.7,21 C33.7,22.7 33.4,24.4 32.7,25.9 L25.3,22.3 C25.8,20.7 25.4,18.9 24.1,17.7 C22.6,16.2 20.1,15.9 18.4,16.9 L16.7,15.2 L15.1,16.8 L16.8,18.5 C15.7,20.3 15.9,22.6 17.6,24.2 C18.9,25.5 20.7,25.8 22.2,25.4 L32.4,46.5 L33.5,46 L27.9,34.4 C29.3,33.6 30.6,32.8 31.7,31.6 C32.9,30.4 33.7,29.2 34.5,27.8 L46.1,33.4 L46.6,32.3 L35,26.7 C35.6,25 36,23 36,21 Z M19.9,20.1 C20.4,19.6 21.2,19.6 21.5,20.1 C22,20.6 22,21.4 21.5,21.7 C21,22.2 20.2,22.2 19.9,21.7 C19.4,21.4 19.4,20.6 19.9,20.1 Z M26.7,32.5 L23.1,25.1 C23.4,24.9 23.8,24.7 24.1,24.4 C24.4,24.1 24.6,23.8 24.8,23.4 L32.2,27 C31,29.3 29.1,31.2 26.7,32.5 Z" id="Shape" fill="#FFFFFF"></path>
                </g>
                <g>
                    <circle id="omni_imp_e2e_java_micro_1_" fill="#E5B522" cx="27.5" cy="27.9" r="27.5"></circle>
                    <path d="M35.4,21 L33,21 C33,22.7 32.7,24.4 32,25.9 L24.6,22.3 C25.1,20.7 24.7,18.9 23.4,17.7 C21.9,16.2 19.4,15.9 17.7,16.9 L16,15.2 L14.4,16.8 L16.1,18.5 C15,20.3 15.2,22.6 16.9,24.2 C18.2,25.5 20,25.8 21.5,25.4 L31.7,46.5 L32.8,46 L27.2,34.4 C28.6,33.6 29.9,32.8 31,31.6 C32.2,30.4 33,29.2 33.8,27.8 L45.4,33.4 L45.9,32.3 L34.3,26.7 C35,25 35.4,23 35.4,21 Z M19.2,20.1 C19.7,19.6 20.5,19.6 20.8,20.1 C21.3,20.6 21.3,21.4 20.8,21.7 C20.3,22.2 19.5,22.2 19.2,21.7 C18.8,21.4 18.8,20.6 19.2,20.1 Z M26,32.5 L22.4,25.1 C22.7,24.9 23.1,24.7 23.4,24.4 C23.7,24.1 23.9,23.8 24.1,23.4 L31.5,27 C30.3,29.3 28.4,31.2 26,32.5 Z" id="Shape" fill="#FFFFFF"></path>
                </g>
            </g>
        </g>
        <g id="Group" transform="translate(540.000000, 173.000000)">
            <polyline id="Path" stroke="#3662AC" stroke-width="1.5" points="25 6.5 0.2 6.5 0.2 332.8 25 332.8"></polyline>
            <polygon id="Path" fill="#3662AC" fill-rule="nonzero" points="20 0.4 19 1.5 24.4 6.5 19 11.5 20 12.6 26.6 6.5"></polygon>
            <polygon id="Path" fill="#3662AC" fill-rule="nonzero" points="20 339 19 337.9 24.4 332.8 19 327.8 20 326.7 26.6 332.8"></polygon>
        </g>
        <g id="Group" transform="translate(540.000000, 278.000000)">
            <path d="M25,7 L0.2,7" id="Path" stroke="#3662AC" stroke-width="1.5"></path>
            <polygon id="Path" fill="#3662AC" fill-rule="nonzero" points="20 0.8 19 1.9 24.4 7 19 12 20 13.1 26.6 7"></polygon>
        </g>
        <g id="Group" transform="translate(540.000000, 387.000000)">
            <path d="M25,6.4 L0.2,6.4" id="Path" stroke="#3662AC" stroke-width="1.5"></path>
            <polygon id="Path" fill="#3662AC" fill-rule="nonzero" points="20 0.2 19 1.3 24.4 6.4 19 11.4 20 12.5 26.6 6.4"></polygon>
        </g>
        <g id="micro-kube-mysql" transform="translate(776.000000, 365.000000)">
            <circle id="Oval" fill="#294B6E" fill-rule="nonzero" cx="28.4" cy="27.9" r="27.5"></circle>
            <g id="Group" transform="translate(14.000000, 10.000000)" fill="#FFFFFF" fill-rule="nonzero">
                <ellipse id="Oval" cx="14.4" cy="5.8" rx="13" ry="5.5"></ellipse>
                <path d="M27.8,7.7 C27.1,10.6 21.4,12.9 14.4,12.9 C7.4,12.9 1.6,10.6 1,7.7 L0.9,7.7 L0.9,29.2 L0.9,29.2 C0.9,32.4 6.9,34.9 14.4,34.9 C21.9,34.9 27.9,32.3 27.9,29.2 L27.8,7.7 L27.8,7.7 Z" id="Path"></path>
            </g>
            <text id="MySQL" fill="#3662AC" font-family="HelvNeueMediumforIBM, HelvNeue Medium for IBM" font-size="11" font-weight="normal">
                <tspan x="9.4689" y="68.9567">MySQL</tspan>
            </text>
        </g>
        <g id="Group" transform="translate(556.000000, 85.000000)" fill="#3662AC" font-family="HelvNeueMediumforIBM, HelvNeue Medium for IBM" font-size="11" font-weight="normal">
            <text id="KUBERNETES">
                <tspan x="0" y="8">KUBERNETES</tspan>
            </text>
            <text id="BACKEND">
                <tspan x="10.2" y="21.2">BACKEND</tspan>
            </text>
            <text id="SERVICES">
                <tspan x="10.2" y="34.4">SERVICES</tspan>
            </text>
        </g>
        <path d="M526,79 L657,79 L657,559.9 L526,559.9 L526,79 Z" id="Rectangle" stroke="#3662AC" stroke-width="1.8584" stroke-dasharray="7.4336"></path>
        <g id="micro-kube-ingressctl" transform="translate(173.000000, 314.000000)">
            <g id="Group" transform="translate(11.000000, 0.000000)" fill-rule="nonzero">
                <path d="M19.6,59.1 C18.2,59.1 16.9,58.5 16,57.3 L2.3,40.2 C1.4,39.1 1,37.6 1.4,36.2 L6.3,14.9 C6.6,13.5 7.6,12.4 8.8,11.7 L28.6,2.2 C29.2,1.9 29.9,1.7 30.6,1.7 C31.3,1.7 32,1.9 32.6,2.2 L52.4,11.7 C53.7,12.3 54.6,13.5 54.9,14.9 L59.8,36.2 C60.1,37.6 59.8,39.1 58.9,40.2 L45.2,57.3 C44.3,58.4 43,59.1 41.6,59.1 L19.6,59.1 L19.6,59.1 Z" id="Path" fill="#3957A3"></path>
                <path d="M30.7,2.8 C31.2,2.8 31.8,2.9 32.3,3.2 L52.1,12.7 C53.1,13.2 53.9,14.2 54.1,15.2 L59,36.5 C59.3,37.6 59,38.8 58.3,39.7 L44.6,56.8 C43.9,57.7 42.8,58.2 41.7,58.2 L19.7,58.2 C18.6,58.2 17.5,57.7 16.8,56.8 L3,39.6 C2.3,38.7 2,37.5 2.3,36.4 L7.2,15.1 C7.5,14 8.2,13 9.2,12.6 L29,3.1 C29.5,2.9 30.1,2.8 30.7,2.8 L30.7,2.8 Z M30.7,0.9 L30.7,0.9 C29.9,0.9 29.1,1.1 28.3,1.4 L8.5,10.9 C6.9,11.6 5.8,13 5.4,14.7 L0.5,36 C0.1,37.7 0.5,39.4 1.6,40.8 L15.3,57.9 C16.4,59.2 18,60 19.7,60 L41.7,60 C43.4,60 45,59.3 46.1,57.9 L59.8,40.8 C60.9,39.5 61.3,37.7 60.9,36 L56,14.7 C55.6,13 54.5,11.6 52.9,10.9 L33.1,1.4 C32.3,1.1 31.5,0.9 30.7,0.9 L30.7,0.9 L30.7,0.9 Z" id="Shape" fill="#FFFFFF"></path>
                <path d="M50.6,34.7 L50.6,34.7 L50.6,34.7 C50.5,34.7 50.5,34.7 50.6,34.7 L50.6,34.7 C50.5,34.7 50.5,34.7 50.5,34.7 C50.4,34.7 50.3,34.7 50.3,34.7 C50,34.7 49.8,34.6 49.6,34.6 C49.5,34.6 49.4,34.6 49.2,34.6 L49.2,34.6 C48.4,34.5 47.7,34.4 47.1,34.2 C46.8,34.1 46.7,33.9 46.7,33.8 C46.7,33.8 46.7,33.8 46.7,33.7 L46.7,33.7 L46.2,33.5 C46.4,31.7 46.4,29.8 45.9,28 C45.5,26.2 44.7,24.4 43.7,22.9 L44.1,22.5 L44.1,22.4 C44.1,22.2 44.1,22 44.3,21.8 C44.8,21.4 45.4,21 46.1,20.6 L46.1,20.6 C46.2,20.5 46.3,20.5 46.5,20.4 C46.7,20.3 46.9,20.2 47.2,20 C47.2,20 47.3,19.9 47.4,19.8 C47.4,19.8 47.5,19.8 47.5,19.7 L47.5,19.7 C48,19.2 48.2,18.4 47.8,17.9 C47.6,17.6 47.3,17.5 46.9,17.5 C46.6,17.5 46.3,17.6 46,17.8 L46,17.8 L46,17.8 C46,17.8 46,17.8 45.9,17.9 C45.8,17.9 45.8,18 45.7,18.1 C45.5,18.3 45.3,18.5 45.2,18.6 C45.1,18.7 45,18.8 44.9,18.9 L44.9,18.9 C44.4,19.5 43.8,20 43.3,20.3 C43.2,20.4 43.1,20.4 42.9,20.4 C42.8,20.4 42.7,20.4 42.7,20.4 L42.6,20.4 L42.6,20.4 L42.1,20.7 C41.6,20.2 41,19.7 40.5,19.2 C38.1,17.4 35.3,16.2 32.3,15.9 L32.3,15.4 C32.3,15.4 32.3,15.4 32.2,15.3 C32.1,15.2 31.9,15.1 31.9,14.8 C31.9,14.2 31.9,13.5 32,12.7 L32,12.7 C32,12.6 32,12.4 32.1,12.3 C32.1,12.1 32.2,11.8 32.2,11.6 L32.2,11.4 L32.2,11.3 L32.2,11.3 L32.2,11.3 C32.2,10.6 31.7,10 31,10 C30.7,10 30.4,10.2 30.1,10.4 C29.9,10.6 29.7,10.9 29.7,11.3 L29.7,11.3 L29.7,11.3 L29.7,11.4 L29.7,11.6 C29.7,11.9 29.7,12.1 29.8,12.3 C29.8,12.4 29.8,12.5 29.9,12.7 L29.9,12.7 C30,13.5 30.1,14.2 30,14.8 C30,15.1 29.8,15.2 29.7,15.3 C29.7,15.3 29.7,15.3 29.6,15.4 L29.6,15.4 L29.6,15.9 C28.9,16 28.2,16.1 27.5,16.2 C24.5,16.9 21.8,18.4 19.7,20.6 L19.3,20.3 L19,20.3 C18.9,20.3 18.8,20.3 18.8,20.3 C18.7,20.3 18.6,20.3 18.4,20.2 C17.9,19.8 17.4,19.3 16.8,18.7 L16.8,18.7 C16.7,18.6 16.6,18.5 16.5,18.4 C16.3,18.2 16.2,18 16,17.9 C16,17.9 15.9,17.8 15.8,17.7 C15.8,17.7 15.7,17.7 15.7,17.6 L15.7,17.6 C15.5,17.4 15.2,17.3 14.8,17.3 C14.4,17.3 14.1,17.5 13.9,17.7 C13.5,18.2 13.6,19 14.2,19.5 L14.2,19.5 L14.2,19.5 C14.2,19.5 14.2,19.5 14.3,19.5 C14.4,19.5 14.4,19.6 14.5,19.7 C14.7,19.9 14.9,20 15.2,20.1 C15.3,20.1 15.4,20.2 15.6,20.3 L15.6,20.3 C16.3,20.7 16.9,21.1 17.4,21.5 C17.6,21.7 17.6,21.9 17.6,22.1 L17.6,22.2 L17.6,22.2 L18,22.6 C17.9,22.7 17.8,22.8 17.8,22.9 C15.8,26 15.1,29.6 15.6,33.3 L15.1,33.5 C15.1,33.5 15.1,33.5 15.1,33.6 C15,33.8 14.9,33.9 14.7,34 C14.1,34.2 13.4,34.3 12.6,34.4 L12.6,34.4 C12.5,34.4 12.3,34.4 12.2,34.4 C12,34.4 11.7,34.4 11.5,34.5 C11.4,34.5 11.3,34.5 11.3,34.5 C11.3,34.5 11.2,34.5 11.2,34.5 L11.2,34.5 L11.2,34.5 C10.5,34.7 10.1,35.3 10.2,36 C10.3,36.5 10.8,36.9 11.5,36.9 C11.6,36.9 11.7,36.9 11.8,36.9 L11.8,36.9 L11.8,36.9 C11.8,36.9 11.9,36.9 11.9,36.9 C12,36.9 12.1,36.9 12.1,36.9 C12.4,36.8 12.6,36.7 12.8,36.6 C12.9,36.6 13,36.5 13.2,36.4 L13.2,36.4 C13.9,36.1 14.6,35.9 15.2,35.8 L15.3,35.8 C15.5,35.8 15.7,35.9 15.8,36 C15.8,36 15.8,36 15.9,36 L15.9,36 L16.4,35.9 C17.3,38.8 19.1,41.4 21.5,43.3 C22,43.7 22.6,44.1 23.2,44.4 L23,44.9 C23,44.9 23,44.9 23,45 C23.1,45.2 23.2,45.4 23.1,45.6 C22.9,46.2 22.5,46.8 22.1,47.4 L22.1,47.4 C22,47.5 21.9,47.6 21.9,47.7 C21.7,47.9 21.6,48.1 21.5,48.3 C21.5,48.3 21.4,48.4 21.4,48.5 C21.4,48.5 21.4,48.6 21.4,48.6 L21.4,48.6 L21.4,48.6 C21.1,49.3 21.3,50 21.9,50.3 C22.1,50.4 22.2,50.4 22.4,50.4 C22.9,50.4 23.3,50.1 23.6,49.7 L23.6,49.7 L23.6,49.7 C23.6,49.7 23.6,49.6 23.6,49.6 C23.6,49.5 23.7,49.4 23.7,49.4 C23.8,49.1 23.9,48.9 23.9,48.7 C23.9,48.6 24,48.5 24,48.3 L24,48.3 C24.3,47.5 24.5,46.9 24.8,46.3 C25,46.1 25.2,46 25.3,45.9 C25.3,45.9 25.3,45.9 25.4,45.9 L25.4,45.9 L25.7,45.4 C27.4,46.1 29.3,46.4 31.2,46.4 C32.3,46.4 33.5,46.3 34.6,46 C35.3,45.8 36,45.6 36.6,45.4 L36.8,45.8 C36.8,45.8 36.8,45.8 36.9,45.8 C37.1,45.8 37.3,45.9 37.4,46.2 C37.7,46.7 37.9,47.4 38.2,48.2 L38.2,48.2 C38.2,48.3 38.3,48.4 38.3,48.6 C38.4,48.8 38.4,49.1 38.5,49.3 C38.5,49.4 38.6,49.4 38.6,49.5 C38.6,49.5 38.6,49.6 38.6,49.6 L38.6,49.6 L38.6,49.6 C38.8,50.1 39.3,50.3 39.8,50.3 C40,50.3 40.1,50.3 40.3,50.2 C40.6,50 40.8,49.8 40.9,49.5 C41,49.2 41,48.8 40.8,48.5 L40.8,48.5 L40.8,48.5 C40.8,48.5 40.8,48.5 40.8,48.4 C40.8,48.3 40.7,48.2 40.7,48.2 C40.6,48 40.4,47.8 40.3,47.6 C40.2,47.5 40.1,47.4 40.1,47.3 L40.1,47.3 C39.7,46.6 39.3,46 39.1,45.5 C39,45.2 39.1,45.1 39.1,44.9 C39.1,44.9 39.1,44.9 39.1,44.8 L39.1,44.8 L38.9,44.3 C41,43.1 42.7,41.4 44.1,39.2 C44.8,38.1 45.4,36.9 45.7,35.7 L46.2,35.8 C46.2,35.8 46.2,35.8 46.3,35.8 C46.5,35.7 46.6,35.6 46.8,35.6 L46.9,35.6 C47.5,35.7 48.2,35.9 48.9,36.2 L48.9,36.2 C49,36.2 49.1,36.3 49.3,36.4 C49.5,36.5 49.7,36.6 50,36.7 C50.1,36.7 50.2,36.7 50.2,36.7 C50.2,36.7 50.3,36.7 50.3,36.7 L50.3,36.7 C50.4,36.7 50.5,36.7 50.6,36.7 C51.2,36.7 51.7,36.3 51.9,35.8 C51.7,35.6 51.3,34.9 50.6,34.7 L50.6,34.7 Z M32.4,32.8 L30.7,33.6 L29,32.8 L28.6,31 L29.8,29.5 L31.7,29.5 L32.9,31 L32.4,32.8 L32.4,32.8 Z M42.6,28.7 C42.9,30 43,31.4 42.9,32.7 L36.9,31 C36.4,30.8 36,30.3 36.2,29.7 C36.2,29.5 36.3,29.4 36.4,29.3 L41.1,25 C41.8,26.1 42.3,27.4 42.6,28.7 L42.6,28.7 Z M39.3,22.7 L34.2,26.3 C33.8,26.6 33.2,26.5 32.8,26.1 C32.7,26 32.6,25.8 32.6,25.7 L32.2,19.3 C34.9,19.6 37.4,20.8 39.3,22.7 L39.3,22.7 Z M27.9,19.4 C28.3,19.3 28.7,19.2 29.2,19.2 L28.8,25.5 C28.8,26 28.3,26.5 27.7,26.5 C27.5,26.5 27.3,26.5 27.2,26.4 L22,22.7 C23.6,21 25.6,19.9 27.9,19.4 L27.9,19.4 Z M20.2,25 L24.9,29.2 C25.3,29.6 25.4,30.2 25,30.7 C24.9,30.9 24.7,31 24.5,31 L18.4,32.8 C18.2,30 18.7,27.3 20.2,25 L20.2,25 Z M19.1,35.6 L25.3,34.5 C25.8,34.5 26.3,34.8 26.4,35.3 C26.4,35.5 26.4,35.7 26.4,35.9 L26.4,35.9 L24,41.7 C21.8,40.4 20,38.2 19.1,35.6 L19.1,35.6 Z M33.4,43.4 C32.5,43.6 31.6,43.7 30.7,43.7 C29.3,43.7 28,43.5 26.7,43.1 L29.8,37.5 C30.1,37.1 30.6,37 31.1,37.2 C31.3,37.3 31.5,37.5 31.6,37.6 L31.6,37.6 L34.6,43.1 C34.2,43.2 33.8,43.3 33.4,43.4 L33.4,43.4 Z M41.1,38 C40.1,39.6 38.8,40.8 37.3,41.8 L34.8,35.9 C34.7,35.4 34.9,34.9 35.3,34.7 C35.5,34.6 35.7,34.6 35.8,34.6 L42.1,35.7 C42,36.5 41.6,37.2 41.1,38 L41.1,38 Z" id="Shape" fill="#FFFFFF"></path>
            </g>
            <g id="Group" transform="translate(0.000000, 61.000000)">
                <rect id="Rectangle" x="0.9" y="1.1" width="81.4" height="39.8"></rect>
                <g transform="translate(3.061200, 0.981100)" fill="#3662AC" font-family="HelvNeueMediumforIBM, HelvNeue Medium for IBM" font-size="11" font-weight="normal">
                    <text id="INGRESS">
                        <tspan x="14" y="8">INGRESS</tspan>
                    </text>
                    <text id="CONTROLLER">
                        <tspan x="0.4" y="21.2">CONTROLLER</tspan>
                    </text>
                </g>
            </g>
        </g>
        <rect id="Rectangle" fill="#FFFFFF" fill-rule="nonzero" x="517.2" y="343" width="17.3" height="11.4"></rect>
        <rect id="Rectangle" fill="#FFFFFF" fill-rule="nonzero" x="412.7" y="343" width="17.3" height="11.4"></rect>
        <g id="micro-kube-kube-dns" transform="translate(437.000000, 318.000000)">
            <g id="Group" transform="translate(8.000000, 0.000000)" fill-rule="nonzero">
                <path d="M19.8,58.2 C18.4,58.2 17.1,57.6 16.2,56.4 L2.5,39.3 C1.6,38.2 1.2,36.7 1.6,35.3 L6.5,14 C6.8,12.6 7.8,11.5 9,10.8 L28.8,1.3 C29.4,1 30.1,0.8 30.8,0.8 C31.5,0.8 32.2,1 32.8,1.3 L52.6,10.8 C53.9,11.4 54.8,12.6 55.1,14 L60,35.3 C60.3,36.7 60,38.2 59.1,39.3 L45.4,56.4 C44.5,57.5 43.2,58.2 41.8,58.2 L19.8,58.2 L19.8,58.2 Z" id="Path" fill="#3957A3"></path>
                <path d="M30.8,1.9 C31.3,1.9 31.9,2 32.4,2.3 L52.2,11.8 C53.2,12.3 54,13.3 54.2,14.3 L59.1,35.6 C59.4,36.7 59.1,37.9 58.4,38.8 L44.7,55.9 C44,56.8 42.9,57.3 41.8,57.3 L19.8,57.3 C18.7,57.3 17.6,56.8 16.9,55.9 L3.2,38.8 C2.5,37.9 2.2,36.7 2.5,35.6 L7.4,14.3 C7.7,13.2 8.4,12.2 9.4,11.8 L29.2,2.3 C29.6,2 30.2,1.9 30.8,1.9 L30.8,1.9 Z M30.8,0.1 L30.8,0.1 C30,0.1 29.2,0.3 28.4,0.6 L8.6,10.1 C7,10.8 5.9,12.2 5.5,13.9 L0.6,35.2 C0.2,36.9 0.6,38.6 1.7,40 L15.4,57.1 C16.5,58.4 18.1,59.2 19.8,59.2 L41.8,59.2 C43.5,59.2 45.1,58.5 46.2,57.1 L59.9,40 C61,38.7 61.4,36.9 61,35.2 L56.1,13.9 C55.7,12.2 54.6,10.8 53,10.1 L33.2,0.6 C32.4,0.3 31.6,0.1 30.8,0.1 L30.8,0.1 L30.8,0.1 Z" id="Shape" fill="#FFFFFF"></path>
                <path d="M50.7,33.9 L50.7,33.9 L50.7,33.9 C50.6,33.9 50.6,33.9 50.7,33.9 L50.7,33.9 C50.6,33.9 50.6,33.9 50.6,33.9 C50.5,33.9 50.4,33.9 50.4,33.9 C50.1,33.9 49.9,33.8 49.7,33.8 C49.6,33.8 49.5,33.8 49.3,33.8 L49.3,33.8 C48.5,33.7 47.8,33.6 47.2,33.4 C46.9,33.3 46.8,33.1 46.8,33 C46.8,33 46.8,33 46.8,32.9 L46.8,32.9 L46.3,32.7 C46.5,30.9 46.5,29 46,27.2 C45.6,25.4 44.8,23.6 43.8,22.1 L44.2,21.7 L44.2,21.6 C44.2,21.4 44.2,21.2 44.4,21 C44.9,20.6 45.5,20.2 46.2,19.8 L46.2,19.8 C46.3,19.7 46.4,19.7 46.6,19.6 C46.8,19.5 47,19.4 47.3,19.2 C47.3,19.2 47.4,19.1 47.5,19 C47.5,19 47.6,19 47.6,18.9 L47.6,18.9 C48.1,18.4 48.3,17.6 47.9,17.1 C47.7,16.8 47.4,16.7 47,16.7 C46.7,16.7 46.4,16.8 46.1,17 L46.1,17 L46.1,17 C46.1,17 46.1,17 46,17.1 C45.9,17.1 45.9,17.2 45.8,17.3 C45.6,17.5 45.4,17.7 45.3,17.8 C45.2,17.9 45.1,18 45,18.1 L45,18.1 C44.5,18.7 43.9,19.2 43.4,19.5 C43.3,19.6 43.2,19.6 43,19.6 C42.9,19.6 42.8,19.6 42.8,19.6 L42.7,19.6 L42.7,19.6 L42.2,19.9 C41.7,19.4 41.1,18.9 40.6,18.4 C38.2,16.6 35.4,15.4 32.4,15.1 L32.4,14.6 C32.4,14.6 32.4,14.6 32.3,14.5 C32.2,14.4 32,14.3 32,14 C32,13.4 32,12.7 32.1,11.9 L32.1,11.9 C32.1,11.8 32.1,11.6 32.2,11.5 C32.2,11.3 32.3,11 32.3,10.8 L32.3,10.6 L32.3,10.5 L32.3,10.5 L32.3,10.5 C32.3,9.8 31.8,9.2 31.1,9.2 C30.8,9.2 30.5,9.4 30.2,9.6 C29.9,9.8 29.8,10.1 29.8,10.5 L29.8,10.5 L29.8,10.5 L29.8,10.6 L29.8,10.8 C29.8,11.1 29.8,11.3 29.9,11.5 C29.9,11.6 29.9,11.7 30,11.9 L30,11.9 C30.1,12.7 30.2,13.4 30.1,14 C30.1,14.3 29.9,14.4 29.8,14.5 C29.8,14.5 29.8,14.5 29.7,14.6 L29.7,14.6 L29.7,15.1 C29,15.2 28.3,15.3 27.6,15.4 C24.6,16.1 21.9,17.6 19.8,19.8 L19.4,19.5 L19.3,19.5 C19.2,19.5 19.1,19.5 19.1,19.5 C19,19.5 18.9,19.5 18.7,19.4 C18.2,19 17.7,18.5 17.1,17.9 L17.1,17.9 C17,17.8 16.9,17.7 16.8,17.6 C16.6,17.4 16.5,17.2 16.3,17.1 C16.3,17.1 16.2,17 16.1,16.9 C16.1,16.9 16,16.9 16,16.8 L16,16.8 C15.8,16.6 15.5,16.5 15.1,16.5 C14.7,16.5 14.4,16.7 14.2,16.9 C13.8,17.4 13.9,18.2 14.5,18.7 L14.5,18.7 L14.5,18.7 C14.5,18.7 14.5,18.7 14.6,18.7 C14.7,18.7 14.7,18.8 14.8,18.9 C15,19.1 15.2,19.2 15.5,19.3 C15.6,19.3 15.7,19.4 15.9,19.5 L15.9,19.5 C16.6,19.9 17.2,20.3 17.7,20.7 C17.9,20.9 17.9,21.1 17.9,21.3 L17.9,21.4 L17.9,21.4 L18.3,21.8 C18.2,21.9 18.1,22 18.1,22.1 C16.1,25.2 15.4,28.8 15.9,32.5 L15.4,32.7 C15.4,32.7 15.4,32.7 15.4,32.8 C15.3,33 15.2,33.1 15,33.2 C14.4,33.4 13.7,33.5 12.9,33.6 L12.9,33.6 C12.8,33.6 12.6,33.6 12.5,33.6 C12.3,33.6 12,33.6 11.8,33.7 C11.7,33.7 11.6,33.7 11.6,33.7 C11.6,33.7 11.5,33.7 11.5,33.7 L11.5,33.7 L11.5,33.7 C10.8,33.9 10.4,34.5 10.5,35.2 C10.6,35.7 11.1,36.1 11.8,36.1 C11.9,36.1 12,36.1 12.1,36.1 L12.1,36.1 L12.1,36.1 C12.1,36.1 12.2,36.1 12.2,36.1 C12.3,36.1 12.4,36.1 12.4,36.1 C12.7,36 12.9,35.9 13.1,35.8 C13.2,35.8 13.3,35.7 13.5,35.6 L13.5,35.6 C14.2,35.3 14.9,35.1 15.5,35 L15.6,35 C15.8,35 16,35.1 16.1,35.2 C16.1,35.2 16.1,35.2 16.2,35.2 L16.2,35.2 L16.7,35.1 C17.6,38 19.4,40.6 21.8,42.5 C22.3,42.9 22.9,43.3 23.5,43.6 L23.3,44.1 C23.3,44.1 23.3,44.1 23.3,44.2 C23.4,44.4 23.5,44.6 23.4,44.8 C23.2,45.4 22.8,46 22.4,46.6 L22.4,46.6 C22.3,46.7 22.2,46.8 22.2,46.9 C22,47.1 21.9,47.3 21.8,47.5 C21.8,47.5 21.7,47.6 21.7,47.7 C21.7,47.7 21.7,47.8 21.7,47.8 L21.7,47.8 L21.7,47.8 C21.4,48.5 21.6,49.2 22.2,49.5 C22.4,49.6 22.5,49.6 22.7,49.6 C23.2,49.6 23.6,49.3 23.9,48.9 L23.9,48.9 L23.9,48.9 C23.9,48.9 23.9,48.8 23.9,48.8 C23.9,48.7 24,48.6 24,48.6 C24.1,48.3 24.2,48.1 24.2,47.9 C24.2,47.8 24.3,47.7 24.3,47.5 L24.3,47.5 C24.6,46.7 24.8,46.1 25.1,45.5 C25.3,45.3 25.5,45.2 25.6,45.1 C25.6,45.1 25.6,45.1 25.7,45.1 L25.7,45.1 L26,44.6 C27.7,45.3 29.6,45.6 31.5,45.6 C32.6,45.6 33.8,45.5 34.9,45.2 C35.6,45 36.3,44.8 36.9,44.6 L37.1,45 C37.1,45 37.1,45 37.2,45 C37.4,45 37.6,45.1 37.7,45.4 C38,45.9 38.2,46.6 38.5,47.4 L38.5,47.4 C38.5,47.5 38.6,47.6 38.6,47.8 C38.7,48 38.7,48.3 38.8,48.5 C38.8,48.6 38.9,48.6 38.9,48.7 C38.9,48.7 38.9,48.8 38.9,48.8 L38.9,48.8 L38.9,48.8 C39.1,49.3 39.6,49.5 40.1,49.5 C40.3,49.5 40.4,49.5 40.6,49.4 C40.9,49.2 41.1,49 41.2,48.7 C41.3,48.4 41.3,48 41.1,47.7 L41.1,47.7 L41.1,47.7 C41.1,47.7 41.1,47.7 41.1,47.6 C41.1,47.5 41,47.4 41,47.4 C40.9,47.2 40.7,47 40.6,46.8 C40.5,46.7 40.4,46.6 40.4,46.5 L40.4,46.5 C40,45.8 39.6,45.2 39.4,44.7 C39.3,44.4 39.4,44.3 39.4,44.1 C39.4,44.1 39.4,44.1 39.4,44 L39.4,44 L39.2,43.5 C41.3,42.3 43,40.6 44.4,38.4 C45.1,37.3 45.7,36.1 46,34.9 L46.5,35 C46.5,35 46.5,35 46.6,35 C46.8,34.9 46.9,34.8 47.1,34.8 L47.2,34.8 C47.8,34.9 48.5,35.1 49.2,35.4 L49.2,35.4 C49.3,35.4 49.4,35.5 49.6,35.6 C49.8,35.7 50,35.8 50.3,35.9 C50.4,35.9 50.5,35.9 50.5,35.9 C50.5,35.9 50.6,35.9 50.6,35.9 L50.6,35.9 C50.7,35.9 50.8,35.9 50.9,35.9 C51.5,35.9 52,35.5 52.2,35 C51.8,34.7 51.4,34.1 50.7,33.9 L50.7,33.9 Z M32.5,32 L30.8,32.8 L29,32 L28.6,30.2 L29.8,28.7 L31.7,28.7 L32.9,30.2 L32.5,32 L32.5,32 Z M42.7,27.9 C43,29.2 43.1,30.6 43,31.9 L37,30.2 C36.5,30 36.1,29.5 36.3,28.9 C36.3,28.7 36.4,28.6 36.5,28.5 L41.2,24.2 C41.9,25.3 42.4,26.5 42.7,27.9 L42.7,27.9 Z M39.4,21.8 L34.3,25.4 C33.9,25.7 33.3,25.6 32.9,25.2 C32.8,25.1 32.7,24.9 32.7,24.8 L32.3,18.4 C35,18.7 37.5,19.9 39.4,21.8 L39.4,21.8 Z M28,18.6 C28.4,18.5 28.8,18.4 29.3,18.4 L28.9,24.7 C28.9,25.2 28.4,25.7 27.8,25.7 C27.6,25.7 27.4,25.7 27.3,25.6 L22.1,21.9 C23.8,20.2 25.8,19.1 28,18.6 L28,18.6 Z M20.3,24.2 L25,28.4 C25.4,28.8 25.5,29.4 25.1,29.9 C25,30.1 24.8,30.2 24.6,30.2 L18.5,32 C18.3,29.2 18.8,26.5 20.3,24.2 L20.3,24.2 Z M19.2,34.8 L25.4,33.7 C25.9,33.7 26.4,34 26.5,34.5 C26.5,34.7 26.5,34.9 26.5,35.1 L26.5,35.1 L24.1,40.9 C21.9,39.5 20.1,37.4 19.2,34.8 L19.2,34.8 Z M33.5,42.6 C32.6,42.8 31.7,42.9 30.8,42.9 C29.4,42.9 28.1,42.7 26.8,42.3 L29.9,36.7 C30.2,36.3 30.7,36.2 31.2,36.4 C31.4,36.5 31.6,36.7 31.7,36.8 L31.7,36.8 L34.7,42.3 C34.3,42.4 33.9,42.5 33.5,42.6 L33.5,42.6 Z M41.2,37.1 C40.2,38.7 38.9,39.9 37.4,40.9 L34.9,35 C34.8,34.5 35,34 35.4,33.8 C35.6,33.7 35.8,33.7 35.9,33.7 L42.2,34.8 C42.1,35.6 41.7,36.4 41.2,37.1 L41.2,37.1 Z" id="Shape" fill="#FFFFFF"></path>
            </g>
            <g id="Group" transform="translate(0.000000, 59.000000)">
                <rect id="Rectangle" x="0" y="0.8" width="77.4" height="27.1"></rect>
                <g transform="translate(1.128500, 0.667200)" fill="#3662AC" font-family="HelvNeueMediumforIBM, HelvNeue Medium for IBM" font-size="11" font-weight="normal">
                    <text id="KUBERNETES">
                        <tspan x="0" y="8">KUBERNETES</tspan>
                    </text>
                    <text id="DNS">
                        <tspan x="25.9" y="21.2">DNS</tspan>
                    </text>
                </g>
            </g>
        </g>
        <g id="micro-kube-web-bff" transform="translate(322.000000, 386.000000)">
            <g id="Group" transform="translate(13.000000, 0.000000)" fill-rule="nonzero">
                <circle id="Oval" fill="#E2B124" cx="28.4" cy="28.1" r="27.5"></circle>
                <path d="M36.3,21.2 L33.9,21.2 C33.9,22.9 33.6,24.6 32.9,26.1 L25.4,22.5 C25.9,20.9 25.5,19.1 24.2,17.8 C22.6,16.2 20.3,16 18.5,17.1 L16.7,15.3 L15,17 L16.8,18.8 C15.7,20.6 16,23 17.5,24.5 C18.8,25.8 20.6,26.2 22.2,25.7 L32.4,46.9 L33.5,46.4 L27.9,34.8 C29.3,34.1 30.6,33.1 31.7,32 C32.8,30.9 33.8,29.6 34.5,28.2 L46.1,33.8 L46.6,32.7 L35,27.1 C35.9,25.3 36.3,23.3 36.3,21.2 Z M20.1,20.4 C20.6,19.9 21.3,19.9 21.8,20.4 C22.3,20.9 22.3,21.6 21.8,22.1 C21.3,22.6 20.6,22.6 20.1,22.1 C19.7,21.6 19.7,20.8 20.1,20.4 Z M27,32.7 L23.4,25.3 C23.7,25.1 24,24.9 24.3,24.6 C24.6,24.3 24.8,24 25,23.7 L32.4,27.3 C31.2,29.5 29.3,31.5 27,32.7 Z" id="Shape" fill="#FFFFFF"></path>
            </g>
            <g id="Group" transform="translate(0.249100, 58.622700)" fill="#3662AC" font-family="HelvNeueMediumforIBM, HelvNeue Medium for IBM" font-size="11" font-weight="normal">
                <text id="WEB">
                    <tspan x="27" y="8">WEB</tspan>
                </text>
                <text id="BACKEND-FOR">
                    <tspan x="0.7" y="21.2">BACKEND FOR</tspan>
                </text>
                <text id="FRONTEND">
                    <tspan x="10.5" y="34.4">FRONTEND</tspan>
                </text>
                <text id="(Node.js)">
                    <tspan x="16.4" y="47.6">(Node.js)</tspan>
                </text>
            </g>
        </g>
        <g id="micro-kube-authenticate" transform="translate(313.000000, 251.000000)">
            <g id="Group" transform="translate(0.000000, 58.000000)" fill="#3662AC" font-family="HelvNeueMediumforIBM, HelvNeue Medium for IBM" font-size="11" font-weight="normal">
                <text id="AUTHENTICATION">
                    <tspan x="1" y="8">AUTHENTICATION</tspan>
                </text>
                <text id="&amp;-AUTHORIZATION">
                    <tspan x="0.5" y="21.2">&amp; AUTHORIZATION</tspan>
                </text>
            </g>
            <g id="Group" transform="translate(21.000000, 0.000000)">
                <circle id="Oval" fill="#DB1F2A" fill-rule="nonzero" cx="28.4" cy="28.4" r="27.5"></circle>
                <g transform="translate(17.000000, 9.000000)">
                    <path d="M18.1,38.5 L4.7,38.5 C2.5,38.5 0.7,36.7 0.7,34.5 L0.7,4.3 C0.7,2.1 2.5,0.3 4.7,0.3 L18.1,0.3 C20.3,0.3 22.1,2.1 22.1,4.3 L22.1,34.5 C22.1,36.7 20.3,38.5 18.1,38.5 Z" id="Path" stroke="#FFFFFF" stroke-width="1.2" fill="#FFFFFF" fill-rule="nonzero"></path>
                    <path d="M15.2,32.7 L7.6,32.7 C5.4,32.7 3.6,30.9 3.6,28.7 L3.6,8.9 C3.6,6.7 5.4,4.9 7.6,4.9 L15.2,4.9 C17.4,4.9 19.2,6.7 19.2,8.9 L19.2,28.7 C19.2,30.9 17.4,32.7 15.2,32.7 Z" id="Path" fill="#D51F2A" fill-rule="nonzero"></path>
                    <g transform="translate(4.000000, 9.000000)" id="Path" stroke="#FFFFFF" stroke-width="0.8">
                        <path d="M1,6.8 C1,6.3 0.9,5.6 1.2,4.7 C1.5,3.7 1.9,3.1 2.2,2.7 C2.5,2.3 3.1,1.6 4.1,0.9 C5,0.4 5.7,0.3 6.1,0.2 C6.9,0.1 7.5,0.1 7.9,0.1 C8.9,0.2 9.6,0.4 9.7,0.5 C9.9,0.6 10.7,0.9 11.6,1.7 C12.3,2.3 12.7,2.9 12.8,3.1 C13.3,3.8 13.5,4.5 13.5,4.6 C13.6,5 13.6,5.4 13.7,5.6 C13.8,7.1 13.8,9.6 13.8,10.1"></path>
                        <path d="M0.8,8.2 C0.9,8.2 1.3,8.2 1.6,8.1 C2,7.9 2.2,7.6 2.2,7.5 C2.3,7.4 2.4,7.2 2.5,6.6 C2.6,6 2.6,5.9 2.6,5.4 C2.6,5.3 2.7,4.8 2.9,4.3 C3.3,3.3 4.1,2.8 4.6,2.5 C4.9,2.3 5.3,2 5.9,1.9 C6.1,1.8 7.2,1.5 8.5,1.9 C8.7,2 9.3,2.1 9.9,2.5 C10.5,2.9 10.8,3.3 11.1,3.6 C11.4,3.9 11.7,4.3 11.9,4.8 C12,5.1 12,5.3 12.1,5.5 C12.2,6.2 12.2,8 12.2,9.6 C12.2,9.8 12.1,10.1 12.3,10.5 C12.4,10.8 12.7,11 12.9,11.1 C13.3,11.4 13.7,11.5 14,11.5"></path>
                        <path d="M0.8,9.8 C1,9.8 1.3,9.8 1.7,9.8 C2.2,9.7 2.6,9.5 2.8,9.3 C3.1,9.1 3.4,8.9 3.7,8.4 C3.9,8.1 3.9,7.6 4.1,6.7 C4.2,5.8 4.2,5.7 4.3,5.3 C4.3,5.2 4.5,4.8 4.9,4.4 C5.2,4 5.6,3.8 5.7,3.8 C6.1,3.6 6.5,3.5 6.7,3.4 C7.2,3.3 7.6,3.4 7.9,3.4 C8.1,3.4 8.5,3.5 8.8,3.7 C9.2,3.9 9.4,4.1 9.6,4.3 C9.8,4.5 10.1,4.7 10.3,5.1 C10.5,5.5 10.6,5.9 10.6,6 C10.6,6.3 10.6,6.5 10.6,6.6 C10.6,7.9 10.7,9.2 10.6,10.5 C10.6,10.6 10.6,10.9 10.7,11.1 C10.8,11.4 11.2,11.8 11.5,12 C11.8,12.3 12.2,12.5 12.3,12.5 C12.6,12.7 13.1,12.8 13.9,12.9"></path>
                        <path d="M0.8,11.4 C1,11.4 1.3,11.5 1.6,11.4 C2.1,11.3 2.4,11.2 2.8,11 C2.9,10.9 3.3,10.8 3.6,10.5 C3.8,10.3 4.3,9.9 4.8,9.3 C5.1,8.9 5.2,8.7 5.4,8.3 C5.4,8.2 5.5,7.9 5.6,7.3 C5.6,6.9 5.7,6.7 5.8,6.3 C5.9,5.9 6,5.8 6,5.7 C6.1,5.5 6.3,5.4 6.5,5.2 C6.8,5 7,4.9 7.3,4.8 C7.6,4.8 7.8,4.8 7.9,4.9 C8,4.9 8.2,5 8.4,5.2 C8.4,5.2 8.7,5.5 8.9,5.8 C9.1,6.1 9.1,6.5 9,7.1 C8.9,8 8.8,8.4 8.7,8.9 C8.6,9.2 8.3,10 7.7,10.9 C6.6,12.4 5.2,13.2 4.7,13.5 C3.2,14.3 1.8,14.4 1,14.5"></path>
                        <path d="M1,13 C1.4,13 1.9,13 2.6,12.8 C4,12.4 4.8,11.7 5.2,11.4 C5.8,10.8 6.2,10.3 6.4,9.9 C6.6,9.5 6.9,9.2 7.1,8.7 C7.3,8.3 7.5,7.5 7.4,6.4"></path>
                        <path d="M7.7,12.8 C8,12.8 8.2,12.8 8.5,12.8"></path>
                        <path d="M9.2,11.3 C9.3,11.5 9.4,11.8 9.5,12.1 C9.8,12.6 10,12.8 10.3,13.1 C10.8,13.6 11.3,13.9 11.5,14 C11.8,14.1 12.1,14.3 12.6,14.5 C13.2,14.7 13.7,14.6 14,14.6"></path>
                        <path d="M12.9,16.2 C12.7,16.1 12.3,16 11.9,15.9 C11.4,15.7 11.2,15.6 10.9,15.4 C10.4,15.1 10.2,15 9.8,14.8 C9.4,14.6 8.9,14.4 8.5,14.3 C8,14.2 7.7,14.1 7.1,14.3 C6.9,14.4 6.6,14.5 6.1,14.7 C5.1,15.2 5.1,15.3 4.4,15.6 C3.8,15.8 3.2,15.9 2.8,16 C2.3,16.1 1.9,16.1 1.6,16.1"></path>
                        <path d="M3,17.6 C3.4,17.6 3.7,17.5 4,17.5 C4.4,17.4 4.7,17.3 4.9,17.1 C5.2,16.9 5.2,16.9 5.7,16.7 C6,16.5 6.2,16.4 6.4,16.3 C6.8,16.1 7,16 7.2,16 C7.4,16 7.5,16 7.8,16 C8.1,16 8.3,16 8.5,16.1 C8.7,16.2 8.9,16.3 9.3,16.5 C9.6,16.6 9.6,16.7 9.9,16.8 C10,16.9 10.4,17.1 10.7,17.2 C11,17.3 11.4,17.5 12,17.6"></path>
                        <path d="M4.7,18.9 C5.1,18.8 5.4,18.7 5.6,18.6 C5.8,18.5 6.2,18.4 6.6,18.1 C6.9,17.9 6.9,17.8 7.2,17.7 C7.5,17.6 7.9,17.6 8.1,17.6 C8.4,17.6 8.7,17.8 8.9,17.8 C9.1,17.9 9.2,18 9.5,18.2 C9.8,18.4 9.9,18.5 10.1,18.6 C10.3,18.7 10.5,18.8 10.6,18.8"></path>
                        <path d="M7.4,19.4 C7.7,19.4 8,19.4 8.3,19.4"></path>
                    </g>
                    <ellipse id="Oval" fill="#D51F2A" fill-rule="nonzero" cx="11.3" cy="35.5" rx="1.6" ry="1.7"></ellipse>
                    <rect id="Rectangle" fill="#D51F2A" fill-rule="nonzero" x="9.2" y="1.7" width="4.4" height="1"></rect>
                </g>
            </g>
        </g>
        <polyline id="Path" stroke="#3662AC" stroke-width="1.5" points="391.1 279.4 410.1 279.4 410.1 416.8 391.1 416.8"></polyline>
        <path d="M507.1,348.5 L539.6,348.5" id="Path" stroke="#3662AC" stroke-width="1.5"></path>
        <g id="Group" transform="translate(410.000000, 342.000000)">
            <path d="M0.1,6.5 L34.8,6.5" id="Path" stroke="#3662AC" stroke-width="1.5"></path>
            <polygon id="Path" fill="#3662AC" fill-rule="nonzero" points="29.9 12.6 28.8 11.5 34.3 6.5 28.8 1.5 29.9 0.4 36.5 6.5"></polygon>
        </g>
        <g id="micro-kube-elastic" transform="translate(758.000000, 151.000000)">
            <text id="ELASTICSEARCH" fill="#3662AC" font-family="HelvNeueMediumforIBM, HelvNeue Medium for IBM" font-size="11" font-weight="normal">
                <tspan x="0.1784" y="67.0393">ELASTICSEARCH</tspan>
            </text>
            <g transform="translate(18.000000, 0.000000)" fill-rule="nonzero">
                <circle id="Oval" stroke="#1B75BC" fill="#FFFFFF" cx="28.4" cy="28.4" r="27.5"></circle>
                <g id="micro-kube-elastic" transform="translate(6.000000, 6.000000)">
                    <circle id="Oval" fill="#FFFFFF" cx="22.4" cy="22.4" r="22"></circle>
                    <g transform="translate(1.000000, 1.000000)" id="Path">
                        <path d="M6,29.9 C5.8,28.7 6.4,27.7 7.5,26.8 C10.2,24.5 12.7,22.1 15.3,19.8 C15.7,19.5 15.9,19.4 16.4,19.6 C19.2,20.9 22.1,22.2 25,23.5 C25.5,23.7 25.8,24 26,24.4 C26.5,25.4 27.1,26.5 27.6,27.5 C27.8,27.8 27.8,28 27.7,28.4 C27.2,31 26.7,33.5 26.2,36.1 C26.1,36.4 26,36.6 25.8,36.9 C23.1,40.5 18.6,42.1 14.2,41 C10,40 6.7,36.3 6.1,32 C6,31.4 6,30.8 6,29.9 Z" fill="#26AFAA"></path>
                        <path d="M24.2,0.3 C32,0.3 37.1,6.3 36.1,13 C36,13.3 35.9,13.6 35.7,13.8 C32.6,16.5 29.6,19.2 26.5,21.9 C26.2,22.2 26,22.2 25.6,22 C22.7,20.7 19.8,19.3 16.9,18 C16.5,17.8 16.2,17.6 16.1,17.2 C15.6,16.2 15.1,15.1 14.7,14.1 C14.6,13.8 14.5,13.5 14.6,13.2 C15.1,10.7 15.6,8.2 16,5.8 C16.1,5.3 16.3,4.9 16.7,4.5 C18.8,1.7 21.7,0.3 24.2,0.3 Z" fill="#FECE3A"></path>
                        <path d="M41.7,21.4 C41.7,24.7 39.9,27.5 37.2,28.7 C36.8,28.9 36.5,28.9 36.1,28.8 C34,28.3 31.8,27.8 29.7,27.3 C29.4,27.2 29.2,27.1 29.1,26.8 C28.6,25.8 28.1,24.8 27.5,23.8 C27.4,23.5 27.4,23.4 27.6,23.2 C30.6,20.6 33.7,17.9 36.7,15.3 C37,15 37.2,15.1 37.5,15.2 C40.2,16.5 41.6,18.7 41.7,21.4 Z" fill="#167C9E"></path>
                        <path d="M0.5,19.9 C0.5,16.8 2.4,14 5,12.9 C5.4,12.7 5.7,12.7 6.1,12.8 C8.2,13.3 10.3,13.8 12.4,14.3 C12.7,14.4 13,14.5 13.1,14.8 C13.5,15.8 14,16.7 14.5,17.7 C14.7,18 14.6,18.2 14.3,18.4 C11.4,21 8.6,23.6 5.7,26.1 C5.3,26.4 5,26.5 4.6,26.3 C1.9,24.9 0.6,22.7 0.5,19.9 Z" fill="#26AFAA"></path>
                        <path d="M11.5,4 C12.2,4 13.1,4.3 14,4.8 C14.3,5 14.3,5.1 14.3,5.4 C13.8,7.6 13.4,9.9 13,12.1 C12.9,12.5 12.9,12.6 12.4,12.5 C10.5,12 8.5,11.6 6.6,11.1 C6.2,11 6.1,10.7 6,10.4 C5.1,7.2 7.7,4 11.5,4 Z" fill="#E64F93"></path>
                        <path d="M30.9,37.6 C30.1,37.6 29.2,37.3 28.3,36.8 C27.9,36.6 27.9,36.3 27.9,35.9 C28.3,33.7 28.8,31.5 29.2,29.2 C29.3,28.9 29.3,28.8 29.7,28.9 C31.7,29.4 33.6,29.8 35.6,30.3 C36,30.4 36.1,30.7 36.2,31 C37.1,34.3 34.5,37.6 30.9,37.6 Z" fill="#FECE3A"></path>
                    </g>
                </g>
            </g>
        </g>
        <g id="micro-kube-couchdb" transform="translate(776.000000, 259.000000)">
            <text id="CouchDB" fill="#3662AC" font-family="HelvNeueMediumforIBM, HelvNeue Medium for IBM" font-size="11" font-weight="normal">
                <tspan x="3.3586" y="66.404">CouchDB</tspan>
            </text>
            <g id="Group" fill-rule="nonzero">
                <circle id="Oval" stroke="#1B75BC" fill="#FFFFFF" cx="28.4" cy="27.9" r="27.5"></circle>
                <path d="M42.4,32.8 C42.4,34.6 41.4,35.6 39.6,35.6 L39.6,35.6 L17.2,35.6 L17.2,35.6 C15.4,35.6 14.4,34.7 14.4,32.8 C14.4,31 15.4,30 17.2,30 L17.2,30 L39.7,30 L39.7,30 C41.5,30 42.4,31 42.4,32.8 Z M39.7,37 L39.7,37 L17.2,37 L17.2,37 C15.4,37 14.4,37.9 14.4,39.8 C14.4,41.6 15.4,42.6 17.2,42.6 L17.2,42.6 L39.7,42.6 L39.7,42.6 C41.5,42.6 42.5,41.7 42.5,39.8 C42.4,37.9 41.5,37 39.7,37 Z M46.6,21.5 L46.6,21.5 C44.8,21.5 43.8,22.4 43.8,24.3 L43.8,39.8 C43.8,41.6 44.8,42.6 46.6,42.6 L46.6,42.6 C49.4,42.5 50.8,39.8 50.8,34.2 L50.8,27.2 C50.9,23.4 49.4,21.6 46.6,21.5 Z M10.2,21.5 L10.2,21.5 C7.4,21.6 6,23.4 6,27.2 L6,34.2 C6,39.8 7.5,42.5 10.2,42.6 L10.2,42.6 C12,42.6 13,41.7 13,39.8 L13,24.4 C13,22.5 12,21.6 10.2,21.5 Z M46.6,20.1 C46.6,15.4 44.1,13.2 39.6,13.1 L39.6,13.1 L17.1,13.1 L17.1,13.1 C12.5,13.2 10.1,15.5 10.1,20.1 L10.1,20.1 C12.9,20.1 14.3,21.6 14.3,24.3 C14.3,27.1 15.8,28.5 18.5,28.5 L18.5,28.5 L38.1,28.5 L38.1,28.5 C40.9,28.5 42.3,27 42.3,24.3 C42.4,21.5 44,20.2 46.6,20.1 Z" id="path28" fill="#E32829"></path>
            </g>
        </g>
        <g id="micro-kube-mariadb" transform="translate(776.000000, 470.000000)">
            <text id="MariaDB" fill="#3662AC" font-family="HelvNeueMediumforIBM, HelvNeue Medium for IBM" font-size="11" font-weight="normal">
                <tspan x="2.3581" y="68.0012">MariaDB</tspan>
            </text>
            <g id="Group" fill-rule="nonzero">
                <circle id="Oval" stroke="#1B75BC" fill="#FFFFFF" cx="28.4" cy="28.1" r="27.5"></circle>
                <g transform="translate(7.000000, 14.000000)" id="Path">
                    <path d="M41.5,0.2 C40.9,0.2 41.1,0.4 39.7,0.8 C38.3,1.1 36.6,1 35,1.7 C30.4,3.6 29.5,10.1 25.4,12.5 C22.3,14.2 19.2,14.4 16.4,15.3 C14.6,15.9 12.5,17.1 10.9,18.5 C9.6,19.6 9.6,20.6 8.2,22 C6.7,23.5 2.4,22 0.5,24.3 C1.1,24.9 1.4,25.1 2.6,25 C2.3,25.5 0.8,25.9 1.1,26.6 C1.4,27.4 5.1,27.9 8.4,25.9 C10,25 11.2,23.6 13.6,23.3 C16.7,22.9 20.3,23.6 23.9,24.1 C23.4,25.7 22.3,26.8 21.4,28 C21.1,28.3 21.9,28.3 22.9,28.1 C24.6,27.7 25.7,27.4 27,26.6 C28.5,25.7 28.8,23.4 30.6,22.9 C31.6,24.5 34.5,24.9 36.3,23.6 C34.8,23.2 34.3,19.9 34.8,18.4 C35.3,17 35.8,14.8 36.3,13 C36.8,11 37,8.6 37.7,7.6 C38.7,6.1 39.8,5.6 40.7,4.7 C41.6,3.8 42.5,3 42.5,1.1 C42.4,0.5 42.1,0.2 41.5,0.2 L41.5,0.2 L41.5,0.2 Z" fill="#1F3162"></path>
                    <path d="M1.7,26.3 C4.1,26.6 5.5,26.3 7.4,25.5 C9,24.8 10.6,23.3 12.5,22.7 C15.3,21.8 18.4,22.7 21.4,22.9 C22.1,22.9 22.9,22.9 23.6,22.9 C24.7,22.2 24.7,19.6 25.8,19.4 C25.8,23 24.3,25.2 22.7,27.3 C26,26.7 27.9,24.8 29.2,22.3 C29.6,21.5 29.9,20.7 30.2,19.9 C30.7,20.3 30.4,21.3 30.6,21.9 C32.8,20.6 34.1,17.8 35,14.9 C36,11.6 36.4,8.2 37,7.2 C37.6,6.2 38.6,5.6 39.5,5 C40.5,4.3 41.4,3.6 41.5,2.2 C40.4,2.1 40.2,1.9 40,1.3 C39.5,1.6 39,1.7 38.4,1.7 C37.9,1.7 37.4,1.7 36.8,1.8 C31.5,2.3 30.8,8.2 27.4,11.5 C27.2,11.7 26.9,12 26.6,12.2 C25.4,13.1 24,13.7 22.6,14.2 C20.4,15 18.4,15.1 16.3,15.8 C14.8,16.3 13.3,17.1 12.1,17.9 C11.8,18.1 11.5,18.3 11.2,18.5 C10.5,19.1 10,19.7 9.6,20.4 C9.1,21.1 8.7,21.8 8,22.5 C6.9,23.6 2.7,22.8 1.2,23.8 C1,23.9 0.9,24.1 0.8,24.2 C1.6,24.6 2.1,24.3 3.1,24.4 C3.5,25.4 1.4,25.9 1.7,26.3 L1.7,26.3 L1.7,26.3 Z" fill="#FFFFFF"></path>
                    <path d="M33.8,20 C33.9,21 34.4,23 35,23.5 C34,23.7 32.2,23.3 31.8,22.6 C32,21.6 33.2,20.6 33.8,20 L33.8,20 L33.8,20 Z" fill="#FFFFFF"></path>
                    <path d="M35.3,4 C36,4.7 37.6,4.1 37.3,2.8 C36.2,2.7 35.5,3.1 35.3,4 L35.3,4 L35.3,4 Z" fill="#1F3162"></path>
                    <path d="M40.5,2.4 C40.3,2.8 39.9,3.4 39.9,4.4 C39.9,4.6 39.8,4.7 39.8,4.4 C39.8,3.4 40.1,2.9 40.4,2.3 C40.5,2.2 40.6,2.3 40.5,2.4 L40.5,2.4 L40.5,2.4 Z" fill="#1F3162"></path>
                    <path d="M40.3,2.3 C40.1,2.7 39.5,3.4 39.4,4.5 C39.4,4.7 39.2,4.8 39.3,4.5 C39.4,3.5 39.9,2.8 40.2,2.3 C40.3,2 40.4,2.1 40.3,2.3 L40.3,2.3 L40.3,2.3 Z" fill="#1F3162"></path>
                    <path d="M40.1,2.1 C39.8,2.5 39,3.4 38.8,4.4 C38.8,4.6 38.6,4.7 38.7,4.4 C38.9,3.4 39.6,2.6 40,2 C40.2,1.8 40.2,1.9 40.1,2.1 L40.1,2.1 L40.1,2.1 Z" fill="#1F3162"></path>
                    <path d="M40,1.8 C39.7,2.1 38.6,3.2 38.3,4.3 C38.2,4.5 38.1,4.6 38.2,4.3 C38.5,3.3 39.4,2.3 39.9,1.8 C40,1.6 40.1,1.7 40,1.8 L40,1.8 L40,1.8 Z" fill="#1F3162"></path>
                </g>
            </g>
        </g>
        <g id="Group" transform="translate(14.000000, 599.000000)">
            <rect id="Rectangle" fill="#E5B522" fill-rule="nonzero" x="0.6" y="29" width="13.1" height="8"></rect>
            <rect id="Rectangle" fill="#274A6E" fill-rule="nonzero" x="0.6" y="42.2" width="13.1" height="8"></rect>
            <rect id="Rectangle" fill="#B5862C" fill-rule="nonzero" x="0.6" y="15.8" width="13.1" height="8"></rect>
            <g fill="#3662AC" font-size="12" font-weight="normal">
                <text id="L" font-family="Helvetica">
                    <tspan x="0.0145" y="11.1545">L</tspan>
                </text>
                <text id="E" font-family="Helvetica">
                    <tspan x="6.9148" y="11.1545">E</tspan>
                </text>
                <text id="GEND" font-family="HelvNeueMediumforIBM, HelvNeue Medium for IBM">
                    <tspan x="14.4148" y="11.1545">GEND</tspan>
                </text>
            </g>
            <rect id="Rectangle" fill="#DB1F2A" fill-rule="nonzero" x="0.6" y="55.4" width="13.1" height="8"></rect>
            <rect id="Rectangle" stroke="#1B75BC" fill="#FFFFFF" fill-rule="nonzero" x="0.6" y="68.6" width="13.1" height="8"></rect>
            <g transform="translate(18.000000, 28.000000)">
                <rect id="Rectangle" x="1" y="1" width="123.8" height="9.4"></rect>
                <text id="Application-component" fill="#3662AC" font-family="HelvNeueMediumforIBM, HelvNeue Medium for IBM" font-size="11" font-weight="normal">
                    <tspan x="0.9611" y="8.8388">Application component</tspan>
                </text>
            </g>
            <g transform="translate(18.000000, 41.000000)">
                <rect id="Rectangle" x="1" y="0.5" width="123.8" height="9.4"></rect>
                <text id="Data" fill="#3662AC" font-family="HelvNeueMediumforIBM, HelvNeue Medium for IBM" font-size="11" font-weight="normal">
                    <tspan x="0.9611" y="8.358">Data</tspan>
                </text>
            </g>
            <g transform="translate(18.000000, 54.000000)">
                <rect id="Rectangle" x="1" y="0.7" width="123.8" height="9.4"></rect>
                <text id="Security" fill="#3662AC" font-family="HelvNeueMediumforIBM, HelvNeue Medium for IBM" font-size="11" font-weight="normal">
                    <tspan x="0.9611" y="8.5596">Security</tspan>
                </text>
            </g>
            <g transform="translate(18.000000, 67.000000)">
                <rect id="Rectangle" x="1" y="0.9" width="123.8" height="9.4"></rect>
                <text id="3rd-party-components" fill="#3662AC" font-family="HelvNeueMediumforIBM, HelvNeue Medium for IBM" font-size="11" font-weight="normal">
                    <tspan x="0.9611" y="8.7612">3rd party components</tspan>
                </text>
            </g>
            <g transform="translate(18.000000, 16.000000)">
                <rect id="Rectangle" x="1" y="0.7" width="123.8" height="9.4"></rect>
                <text id="User" fill="#3662AC" font-family="HelvNeueMediumforIBM, HelvNeue Medium for IBM" font-size="11" font-weight="normal">
                    <tspan x="0.9611" y="8.5431">User</tspan>
                </text>
            </g>
        </g>
        <g class="flowStep" transform="translate(270.000000, 400.000000)">
            <circle id="Oval" fill="#808285" fill-rule="nonzero" cx="13.3" cy="13.4" r="12.5"></circle>
            <text id="1" fill="#FFFFFF" font-family="Helvetica" font-size="16" font-weight="normal">
                <tspan x="9.0269" y="19.1428">1</tspan>
            </text>
        </g>
        <g class="flowStep" transform="translate(372.000000, 232.000000)">
            <circle id="Oval" fill="#808285" fill-rule="nonzero" cx="13.4" cy="12.5" r="12.5"></circle>
            <text id="6" fill="#FFFFFF" font-family="Helvetica" font-size="16" font-weight="normal">
                <tspan x="9.0953" y="18.2043">6</tspan>
            </text>
        </g>
        <g class="flowStep" transform="translate(680.000000, 147.000000)">
            <circle id="Oval" fill="#808285" fill-rule="nonzero" cx="12.6" cy="12.6" r="12.5"></circle>
            <text id="4" fill="#FFFFFF" font-family="Helvetica" font-size="16" font-weight="normal">
                <tspan x="7.2703" y="18.3244">4</tspan>
            </text>
        </g>
        <g class="flowStep" transform="translate(68.000000, 297.000000)">
            <circle id="Oval" fill="#808285" fill-rule="nonzero" cx="12.9" cy="12.9" r="12.5"></circle>
            <text id="5" fill="#FFFFFF" font-family="Helvetica" font-size="16" font-weight="normal">
                <tspan x="8.6109" y="18.6481">5</tspan>
            </text>
        </g>
        <g class="flowStep" transform="translate(87.000000, 314.000000)">
            <circle id="Oval" fill="#808285" fill-rule="nonzero" cx="12.7" cy="12.6" r="12.5"></circle>
            <text id="8" fill="#FFFFFF" font-family="Helvetica" font-size="16" font-weight="normal">
                <tspan x="8.3824" y="18.364">8</tspan>
            </text>
        </g>
        <g class="flowStep" transform="translate(546.000000, 147.000000)">
            <circle id="Oval" fill="#808285" fill-rule="nonzero" cx="12.8" cy="13" r="12.5"></circle>
            <text id="3" fill="#FFFFFF" font-family="Helvetica" font-size="16" font-weight="normal">
                <tspan x="8.4964" y="18.736">3</tspan>
            </text>
        </g>
        <g class="flowStep" transform="translate(626.000000, 244.000000)">
            <circle id="Oval" fill="#808285" fill-rule="nonzero" cx="13.3" cy="12.7" r="12.5"></circle>
            <text id="7" fill="#FFFFFF" font-family="Helvetica" font-size="16" font-weight="normal">
                <tspan x="9.014" y="18.3771">7</tspan>
            </text>
        </g>
        <g class="flowStep" transform="translate(762.000000, 455.000000)">
            <circle id="Oval" fill="#808285" fill-rule="nonzero" cx="13.3" cy="12.7" r="12.5"></circle>
            <text id="9" fill="#FFFFFF" font-family="Helvetica" font-size="16" font-weight="normal">
                <tspan x="9.014" y="18.3771">9</tspan>
            </text>
        </g>
        <g class="flowStep" transform="translate(43.000000, 294.000000)">
            <circle id="Oval" fill="#808285" fill-rule="nonzero" cx="13" cy="13.3" r="12.5"></circle>
            <text id="2" fill="#FFFFFF" font-family="Helvetica" font-size="16" font-weight="normal">
                <tspan x="8.658" y="19.0114">2</tspan>
            </text>
        </g>
    </g>
</svg>